<svg width="353" height="542" viewBox="0 0 353 542" fill="none" xmlns="http://www.w3.org/2000/svg">
<path d="M162.288 494.24C161.408 494.24 160.648 493.96 160.008 493.4C159.448 492.76 159.168 491.96 159.168 491C159.168 490.04 159.448 489.28 160.008 488.72C160.648 488.08 161.408 487.76 162.288 487.76C163.168 487.76 163.888 488.08 164.448 488.72C165.088 489.28 165.408 490.04 165.408 491C165.408 491.96 165.088 492.76 164.448 493.4C163.888 493.96 163.168 494.24 162.288 494.24ZM176.233 494.24C175.353 494.24 174.593 493.96 173.953 493.4C173.393 492.76 173.113 491.96 173.113 491C173.113 490.04 173.393 489.28 173.953 488.72C174.593 488.08 175.353 487.76 176.233 487.76C177.113 487.76 177.833 488.08 178.393 488.72C179.033 489.28 179.353 490.04 179.353 491C179.353 491.96 179.033 492.76 178.393 493.4C177.833 493.96 177.113 494.24 176.233 494.24ZM190.179 494.24C189.299 494.24 188.539 493.96 187.899 493.4C187.339 492.76 187.059 491.96 187.059 491C187.059 490.04 187.339 489.28 187.899 488.72C188.539 488.08 189.299 487.76 190.179 487.76C191.059 487.76 191.779 488.08 192.339 488.72C192.979 489.28 193.299 490.04 193.299 491C193.299 491.96 192.979 492.76 192.339 493.4C191.779 493.96 191.059 494.24 190.179 494.24ZM198.964 411.68V409.52H214.084V494H211.684V411.68H198.964ZM232.634 451.52C232.634 442.48 233.354 434.88 234.794 428.72C236.234 422.56 238.914 417.68 242.834 414.08C246.754 410.48 252.314 408.68 259.514 408.68C266.634 408.68 272.154 410.48 276.074 414.08C280.074 417.68 282.794 422.6 284.234 428.84C285.674 435 286.394 442.56 286.394 451.52C286.394 460.64 285.674 468.32 284.234 474.56C282.794 480.8 280.074 485.76 276.074 489.44C272.154 493.04 266.634 494.84 259.514 494.84C252.314 494.84 246.754 493.04 242.834 489.44C238.914 485.76 236.234 480.8 234.794 474.56C233.354 468.32 232.634 460.64 232.634 451.52ZM283.994 451.52C283.994 442.88 283.354 435.64 282.074 429.8C280.794 423.96 278.354 419.36 274.754 416C271.234 412.56 266.154 410.84 259.514 410.84C252.874 410.84 247.754 412.56 244.154 416C240.634 419.36 238.234 423.96 236.954 429.8C235.674 435.64 235.034 442.88 235.034 451.52C235.034 460.24 235.674 467.56 236.954 473.48C238.234 479.4 240.634 484.08 244.154 487.52C247.754 490.96 252.874 492.68 259.514 492.68C266.154 492.68 271.234 490.96 274.754 487.52C278.354 484.08 280.794 479.4 282.074 473.48C283.354 467.56 283.994 460.24 283.994 451.52ZM322.861 408.68C327.661 408.68 331.981 409.68 335.821 411.68C339.661 413.68 342.661 416.48 344.821 420.08C346.981 423.6 348.061 427.68 348.061 432.32C348.061 441.6 345.301 448.24 339.781 452.24C334.261 456.24 326.501 458.28 316.501 458.36L316.261 475.76H314.341L314.101 456.2H316.021C324.821 456.2 331.941 454.6 337.381 451.4C342.901 448.12 345.661 441.76 345.661 432.32C345.661 425.84 343.541 420.64 339.301 416.72C335.061 412.8 329.581 410.84 322.861 410.84C316.061 410.84 310.621 412.72 306.541 416.48C302.541 420.16 300.541 425.12 300.541 431.36H298.141C298.141 426.64 299.221 422.6 301.381 419.24C303.541 415.8 306.501 413.2 310.261 411.44C314.021 409.6 318.221 408.68 322.861 408.68ZM315.421 494.24C314.541 494.24 313.781 493.96 313.141 493.4C312.581 492.76 312.301 491.96 312.301 491C312.301 490.04 312.581 489.28 313.141 488.72C313.781 488.08 314.541 487.76 315.421 487.76C316.301 487.76 317.021 488.08 317.581 488.72C318.221 489.28 318.541 490.04 318.541 491C318.541 491.96 318.221 492.76 317.581 493.4C317.021 493.96 316.301 494.24 315.421 494.24Z" fill="white"/>
<path d="M160.436 333.02C183.836 317.9 202.376 302.54 216.056 286.94C229.736 271.34 236.576 256.46 236.576 242.3C236.576 232.94 234.056 225.26 229.016 219.26C223.976 213.26 215.696 210.26 204.176 210.26C192.536 210.26 183.596 213.8 177.356 220.88C171.236 227.84 167.756 237.08 166.916 248.6H163.316C164.276 235.64 168.296 225.5 175.376 218.18C182.576 210.74 192.176 207.02 204.176 207.02C214.376 207.02 222.896 209.84 229.736 215.48C236.696 221.12 240.176 230.06 240.176 242.3C240.176 252.98 236.396 264.02 228.836 275.42C221.276 286.82 211.916 297.44 200.756 307.28C189.596 317 178.436 325.16 167.276 331.76H244.496V335H160.436V333.02Z" fill="white"/>
<path d="M11.0444 365.44C12.111 355.733 15.8444 348.107 22.2444 342.56C28.6444 337.013 37.231 334.24 48.0044 334.24C58.031 334.24 65.8177 336.853 71.3644 342.08C76.911 347.307 79.6844 353.973 79.6844 362.08C79.6844 368.907 77.4977 374.88 73.1244 380C68.751 385.013 61.6044 387.947 51.6844 388.8V389.76C60.6444 390.72 67.8977 393.76 73.4444 398.88C78.991 403.893 81.7644 410.72 81.7644 419.36C81.7644 428 78.9377 435.147 73.2844 440.8C67.631 446.347 59.151 449.12 47.8444 449.12C37.2844 449.12 28.591 446.293 21.7644 440.64C15.0444 434.88 10.7777 426.827 8.96438 416.48H12.1644C13.7644 425.227 17.6044 432.32 23.6844 437.76C29.871 443.2 37.9244 445.92 47.8444 445.92C57.871 445.92 65.4977 443.467 70.7244 438.56C75.951 433.547 78.5644 427.147 78.5644 419.36C78.5644 410.08 74.8844 403.04 67.5244 398.24C60.1644 393.333 49.871 390.88 36.6444 390.88H33.9244V387.84H36.8044C63.2577 387.84 76.4844 379.253 76.4844 362.08C76.4844 354.613 73.9777 348.587 68.9644 344C63.951 339.413 56.9644 337.12 48.0044 337.12C39.2577 337.12 31.7377 339.413 25.4444 344C19.151 348.587 15.4177 355.733 14.2444 365.44H11.0444Z" fill="white"/>
<path d="M50.4414 82.8V79.2H75.6414V220H71.6414V82.8H50.4414Z" fill="white"/>
</svg>
